<!DOCTYPE svg PUBLIC "-//W3C//DTD SVG 1.1//EN" "http://www.w3.org/Graphics/SVG/1.1/DTD/svg11.dtd">

<!-- Uploaded to: SVG Repo, www.svgrepo.com, Transformed by: SVG Repo Mixer Tools -->
<svg height="80px" width="80px" version="1.1" id="Layer_1" xmlns="http://www.w3.org/2000/svg" xmlns:xlink="http://www.w3.org/1999/xlink" viewBox="0 0 512 512" xml:space="preserve" fill="#000000">

<g id="SVGRepo_bgCarrier" stroke-width="0"/>

<g id="SVGRepo_tracerCarrier" stroke-linecap="round" stroke-linejoin="round"/>

<g id="SVGRepo_iconCarrier"> <path style="fill:#fdcb5d;" d="M51.2,494.933c-18.822,0-34.133-15.311-34.133-34.133V352.711c0-9.428,7.645-17.067,17.067-17.067 h125.156c9.422,0,17.067,7.639,17.067,17.067v125.156c0,9.428-7.645,17.067-17.067,17.067H51.2z"/> <path style="fill:#50cae2;" d="M34.133,335.644c-9.422,0-17.067-7.639-17.067-17.067V193.422c0-9.428,7.645-17.067,17.067-17.067 h125.156c9.422,0,17.067,7.639,17.067,17.067v125.156c0,9.428-7.645,17.067-17.067,17.067H34.133z"/> <g> <path style="fill:#f36549;" d="M34.133,176.356c-9.422,0-17.067-7.639-17.067-17.067V51.2c0-18.822,15.311-34.133,34.133-34.133 h108.089c9.422,0,17.067,7.639,17.067,17.067v125.156c0,9.428-7.645,17.067-17.067,17.067H34.133z"/> <path style="fill:#f36549;" d="M193.422,494.933c-9.422,0-17.067-7.639-17.067-17.067V352.711c0-9.428,7.645-17.067,17.067-17.067 h125.156c9.422,0,17.067,7.639,17.067,17.067v125.156c0,9.428-7.645,17.067-17.067,17.067H193.422z"/> </g> <path style="fill:#c83214;" d="M318.578,335.644H256v159.289h62.578c9.422,0,17.067-7.639,17.067-17.067V352.711 C335.644,343.283,328,335.644,318.578,335.644z"/> <path style="fill:#fdcb5d;" d="M193.422,335.644c-9.422,0-17.067-7.639-17.067-17.067V193.422c0-9.428,7.645-17.067,17.067-17.067 h125.156c9.422,0,17.067,7.639,17.067,17.067v125.156c0,9.428-7.645,17.067-17.067,17.067H193.422z"/> <path style="fill:#eea93a;" d="M318.578,176.356H256v159.289h62.578c9.422,0,17.067-7.639,17.067-17.067V193.422 C335.644,183.995,328,176.356,318.578,176.356z"/> <path style="fill:#f36549;" d="M193.422,176.356c-9.422,0-17.067-7.639-17.067-17.067V34.133c0-9.428,7.645-17.067,17.067-17.067 h125.156c9.422,0,17.067,7.639,17.067,17.067v125.156c0,9.428-7.645,17.067-17.067,17.067H193.422z"/> <path style="fill:#c83214;" d="M318.578,17.067H256v159.289h62.578c9.422,0,17.067-7.639,17.067-17.067V34.133 C335.644,24.706,328,17.067,318.578,17.067z"/> <path style="fill:#1993ae;" d="M352.711,494.933c-9.422,0-17.067-7.639-17.067-17.067V352.711c0-9.428,7.645-17.067,17.067-17.067 h125.156c9.422,0,17.067,7.639,17.067,17.067V460.8c0,18.822-15.311,34.133-34.133,34.133H352.711z"/> <path style="fill:#eea93a;" d="M352.711,335.644c-9.422,0-17.067-7.639-17.067-17.067V193.422c0-9.428,7.645-17.067,17.067-17.067 h125.156c9.422,0,17.067,7.639,17.067,17.067v125.156c0,9.428-7.645,17.067-17.067,17.067H352.711z"/> <path style="fill:#1993ae;" d="M352.711,176.356c-9.422,0-17.067-7.639-17.067-17.067V34.133c0-9.428,7.645-17.067,17.067-17.067 H460.8c18.822,0,34.133,15.311,34.133,34.133v108.089c0,9.428-7.645,17.067-17.067,17.067H352.711z"/> <path style="fill:#736056;" d="M460.8,0H51.2C22.922,0,0,22.923,0,51.2v108.089v34.133v125.156v34.133V460.8 C0,489.077,22.922,512,51.2,512h409.6c28.278,0,51.2-22.923,51.2-51.2V352.711v-34.133V193.422v-34.133V51.2 C512,22.923,489.078,0,460.8,0z M159.289,477.867H51.2c-9.411,0-17.067-7.656-17.067-17.067V352.711h125.156V477.867z M159.289,318.578H34.133V193.422h125.156V318.578z M159.289,159.289H34.133V51.2c0-9.411,7.656-17.067,17.067-17.067h108.089 V159.289z M318.578,477.867H193.422V352.711h125.156V477.867z M318.578,318.578H193.422V193.422h125.156V318.578z M318.578,159.289 H193.422V34.133h125.156V159.289z M477.867,460.8c0,9.411-7.656,17.067-17.067,17.067H352.711V352.711h125.156V460.8z M477.867,318.578H352.711V193.422h125.156V318.578z M477.867,159.289H352.711V34.133H460.8c9.411,0,17.067,7.656,17.067,17.067 V159.289z"/> <path style="fill:#665247;" d="M460.8,0H256v34.133h62.578v125.156H256v34.133h62.578v125.156H256v34.133h62.578v125.156H256V512 h204.8c28.278,0,51.2-22.923,51.2-51.2V352.711v-34.133V193.422v-34.133V51.2C512,22.923,489.078,0,460.8,0z M477.867,460.8 c0,9.411-7.656,17.067-17.067,17.067H352.711V352.711h125.156V460.8z M477.867,318.578H352.711V193.422h125.156V318.578z M477.867,159.289H352.711V34.133H460.8c9.411,0,17.067,7.656,17.067,17.067V159.289z"/> </g>

</svg>